<svg
    xmlns="http://www.w3.org/2000/svg" viewBox="0 0 216.07 414.91">
    <defs>
        <style>.cls-1,.cls-2,.cls-4,.cls-5{fill:none;}.cls-1,.cls-2,.cls-3{stroke:blue;}.cls-1,.cls-2,.cls-3,.cls-4,.cls-5,.cls-6{stroke-miterlimit:10;}.cls-2,.cls-3,.cls-5,.cls-6{stroke-width:3px;}.cls-3,.cls-6{fill:#fff;}.cls-4,.cls-5,.cls-6{stroke:#000;}</style>
    </defs>
    <g id="Слой_2" data-name="Слой 2">
        <g id="Слой_3" data-name="Слой 3">
            <polygon class="cls-1" points="106.19 65.98 208.28 93.84 106.19 147.01 4.1 93.84 106.19 65.98"/>
            <polygon class="cls-2" points="6.01 9.41 106.19 1.62 106.19 65.16 6.01 92.42 6.01 9.41"/>
            <polygon class="cls-3" points="6.01 94.83 106.19 147.01 106.19 24.44 6.01 9.83 6.01 94.83"/>
            <polygon class="cls-2" points="208.28 93.84 106.19 147.01 106.19 24.44 208.28 9.55 208.28 93.84"/>
            <polygon class="cls-2" points="208.28 9.55 106.19 1.75 106.19 65.98 208.28 93.84 208.28 9.55"/>
            <polygon class="cls-2" points="67.93 127.08 37.69 111.33 37.69 30.59 67.93 36.89 67.93 127.08"/>
            <line class="cls-2" x1="119.88" y1="22.44" x2="119.88" y2="139.6"/>
            <line class="cls-2" x1="132.91" y1="20.54" x2="132.91" y2="132.71"/>
            <line class="cls-2" x1="144.65" y1="18.83" x2="144.65" y2="127.01"/>
            <line class="cls-2" x1="155.1" y1="17.3" x2="155.1" y2="121.54"/>
            <line class="cls-2" x1="165.43" y1="15.8" x2="165.43" y2="115.43"/>
            <line class="cls-2" x1="175.22" y1="14.37" x2="175.22" y2="110.44"/>
            <line class="cls-2" x1="183.76" y1="13.12" x2="183.76" y2="105.96"/>
            <line class="cls-2" x1="191.81" y1="11.95" x2="191.81" y2="101.88"/>
            <line class="cls-2" x1="199.2" y1="10.87" x2="199.2" y2="98.28"/>
            <polygon class="cls-3" points="202.08 9.55 106.62 1.75 12.83 9.41 108.48 24.14 202.08 9.55"/>
            <polygon class="cls-4" points="107.45 331.4 209.55 359.26 107.45 412.44 5.36 359.26 107.45 331.4"/>
            <polygon class="cls-5" points="7.27 274.84 107.45 267.05 107.45 330.58 7.27 357.85 7.27 274.84"/>
            <polygon class="cls-6" points="7.27 360.26 107.45 412.44 107.45 289.86 7.27 275.25 7.27 360.26"/>
            <polygon class="cls-5" points="209.55 359.26 107.45 412.44 107.45 289.86 209.55 274.98 209.55 359.26"/>
            <polygon class="cls-5" points="209.55 274.98 107.45 267.17 107.45 331.4 209.55 359.26 209.55 274.98"/>
            <polygon class="cls-5" points="69.19 392.51 38.95 376.76 38.95 296.02 69.19 302.32 69.19 392.51"/>
            <line class="cls-5" x1="121.14" y1="287.87" x2="121.14" y2="405.03"/>
            <line class="cls-5" x1="134.17" y1="285.97" x2="134.17" y2="398.14"/>
            <line class="cls-5" x1="145.91" y1="284.26" x2="145.91" y2="392.43"/>
            <line class="cls-5" x1="156.36" y1="282.73" x2="156.36" y2="386.96"/>
            <line class="cls-5" x1="166.69" y1="281.23" x2="166.69" y2="380.86"/>
            <line class="cls-5" x1="176.49" y1="279.8" x2="176.49" y2="375.86"/>
            <line class="cls-5" x1="185.03" y1="278.55" x2="185.03" y2="371.39"/>
            <line class="cls-5" x1="193.07" y1="277.38" x2="193.07" y2="367.31"/>
            <line class="cls-5" x1="200.46" y1="276.3" x2="200.46" y2="363.71"/>
            <polygon class="cls-6" points="203.34 274.98 107.88 267.18 14.09 274.84 109.75 289.56 203.34 274.98"/>
        </g>
    </g>
</svg>