<svg
    xmlns="http://www.w3.org/2000/svg" viewBox="0 0 154.08 82.72">
    <defs>
        <style>.cls-1,.cls-2{fill:none;stroke:#000;stroke-miterlimit:10;}.cls-2{font-size:47px;font-family:MyriadPro-Regular, Myriad Pro;letter-spacing:0.01em;}</style>
    </defs>
    <g id="Слой_2" data-name="Слой 2">
        <g id="Слой_1-2" data-name="Слой 1">
            <path class="cls-1" d="M31.46,66.85c.07-2.23-2.54-3.17-4.24-5.66s-1.64-5.17-1.63-7.7c0-1.16,0-4.74,1.6-7.44.88-1.51,1.37-3.35,2.63-4.54.05,0,.34-.32.27-.49s-.94.11-1.41-.22-.47-2,0-3.16c.76-1.89,2.32-2.69,2.13-3s-1,.07-2.09.4c-.36.11-.65.37-.76.26s.16-.47.23-1a2.48,2.48,0,0,0-.3-1.34C27,31.06,26,30.3,25.54,28.74c-.39-1.38.15-1.82-.44-3.37a6.25,6.25,0,0,0-.88-1.6,22.07,22.07,0,0,1-3.42-12c.18-3.94,1.93-6.4,1.47-6.64s-2,1.74-3.09,4c-1.66,3.53-1.24,6.27-1.84,6.33s-2.08-3.6-2.33-7.7c-.23-3.76.57-6.41,0-6.6S13.5,2.85,13,4a16.42,16.42,0,0,0-1.23,8c.16,3,.28,5.24,1.88,6.59.92.79,2.23,1.16,2.14,1.51s-.78.34-1.4.22c-1.17-.23-1.78-1.24-3.17-3.18C9.33,14.48,9.46,15,9,14.15A10.85,10.85,0,0,1,7.41,7.5a16.22,16.22,0,0,0,.31-1.64c-.22-.09-2,2.4-2.43,5.58a11.72,11.72,0,0,0,1.55,7.08,18.4,18.4,0,0,0,6.08,6.37c.16.1.94.42.89.59s-.89.11-1,.09c-3.22-.3-7.81-6.45-9.1-8.71-.07-.14-.22-.41-.31-.38-.25.08-.15,2.77,1,5.07,1.32,2.55,3.52,3.76,3.19,4.35-.15.26-.69.2-.91.18-1.49-.17-2.29-1.9-2.52-1.76s.17,1.26.78,2.35A13,13,0,0,0,7.2,29.53c.42.38.75.63.7.72S6.71,30,5.8,29.53c-1.07-.55-1.47-1-1.59-.87S5,30.43,6,31.74s1.9,2,1.77,2.2S7.51,34,6,33.41s-1.95-.81-2-.7c-.33.36,2.23,3.36,2.91,4.12a4.19,4.19,0,0,1,.58.8,5.37,5.37,0,0,1,.49,1.45c.4,1.44,2.5,1.86,2.43,2.12-.12.5-7.54-1.18-7.62-.85s3.11,1.33,3.06,1.5-1.33-.39-1.56,0c-.37.59,2.51,2.86,2.15,3.45-.19.31-1.05-.17-2.75-.26-1.24-.07-3,.07-3.15.59,0,.26.35.43,1.29,1.25s2.22,1.92,2,2.57c-.12.32-.59.3-.61.57,0,.43,1.1.72,1.05,1.08s-.64.21-.78.6.13.65.41,1.09.46.52.47.78-.38.49-.4.84c-.05.74,1.66,1.22,1.58,1.87,0,.26-.32.27-.35.59,0,.14,0,.31.58,1s.53.61.58.8c.12.49-.25.7-.13,1.08s.43.31,1.28.8a4.91,4.91,0,0,1,1.2.89,3.78,3.78,0,0,1,.66,1.16c.88,2,4.47,1.93,4.53,3.12,0,.42-.42.66-.3.87.29.47,2.57-.76,3-.19.19.28-.33.69-.2,1.11.27.89,2.84.29,6.17.85,2.38.4,2.61,1,4.69,1,1.09,0,3.21,0,4-1.33A2.32,2.32,0,0,0,31.46,66.85Z"/>
            <path class="cls-1" d="M67.82,33.21l-2.75,3.07c-1.37,1.53,2.63,2.1,1.27,3.63l-3.11,3.25c-1.35,1.51-2.69-2-4-.54l-2.75,3.07"/>
            <path class="cls-1" d="M56.27,45.7l.17,4.18c.08,2.07,3.3-.43,3.38,1.64l0,4.55c.08,2-3.32.51-3.24,2.56l.17,4.18"/>
            <path class="cls-1" d="M56.81,63l-4.06.18c-2,.08.42,3.4-1.6,3.48l-4.42,0c-2,.08-.5-3.41-2.49-3.33l-4.06.17"/>
            <path class="cls-1" d="M45.36,20.47,43.17,24c-1.09,1.74,2.94,1.6,1.85,3.34l-2.5,3.76c-1.08,1.72-3-1.55-4.08.18l-2.19,3.52"/>
            <path class="cls-1" d="M67.68,33.48l-.17-4.18c-.08-2.07-3.31.43-3.39-1.64l0-4.56c-.08-2.05,3.31-.5,3.23-2.55l-.09-2.15,4.92-5.26-2.85-3c-1.41-1.48-2.16,2.6-3.58,1.12l-3-3.34c-1.4-1.46,2.23-2.79.72-4.13A21.19,21.19,0,0,0,59.29.63l-.45.5c-1.09,1.58-5,7.3-6.08,8.88s2.87,1.74,1.7,3.43l-2.67,3.63c-1.16,1.67-2.93-1.69-4.08,0l-2.35,3.41"/>
            <ellipse class="cls-1" cx="35.91" cy="53.54" rx="18.29" ry="18.81"/>
            <text class="cls-2" transform="translate(59.87 70.47)">tium</text>
        </g>
    </g>
</svg>